:FULLY-SPECIFIED
:FORCE-ALL-JOINTS-BE-3DOF
:DEGREES
102
root 7.42517 16.5761 -26.6745 -6.2602 7.34754 3.98897
lfemur -9.11601 11.2847 -21.3875
ltibia 36.0087 -0 0
lfoot -22.4359 -9.4529 -0.561743
ltoes 33.057 -0 0
rfemur -81.713 -25.2376 46.7104
rtibia 81.3654 -0 0
rfoot 8.30337 19.2411 2.93528
rtoes -24.8492 0 0
lowerback 12.7704 -2.17972 -7.92611
upperback 3.76812 -3.93643 -0.834064
thorax -2.5491 -1.9058 4.44915
lowerneck -11.8967 -1.01 -0.0490881
upperneck -0.091537 -1.4322 2.46801
head 2.03306 -0.632219 0.742287
lclavicle -2.76507e-14 5.33531e-15 -1.24987e-29
lhumerus -41.3201 -20.5756 92.163
lradius 49.0061 -0 0
lwrist 14.7521 0 0
lhand 5.31017 6.01828 0.151488
lfingers 7.12502 -0 0
lthumb 30.6327 33.166 0.0492759
rclavicle -2.76507e-14 5.33531e-15 -1.24987e-29
rhumerus -43.8437 -22.6793 -64.4241
rradius 73.7435 -0 0
rwrist -29.0968 0 0
rhand -27.6783 -25.5827 0.0117158
rfingers 7.12502 -0 0
rthumb -1.07525 -55.5575 0.0120124
103
root 7.43754 16.5732 -26.6598 -6.41673 7.4675 4.04156
lfemur -9.00379 11.3793 -21.3858
ltibia 36.0184 -0 0
lfoot -22.2681 -9.59872 -0.547007
ltoes 32.9979 -0 0
rfemur -82.4675 -25.313 47.1459
rtibia 81.8556 -0 0
rfoot 8.71898 19.5422 2.85777
rtoes -25.314 0 0
lowerback 12.9373 -2.23643 -7.96568
upperback 3.83773 -4.02819 -0.879529
thorax -2.55777 -1.95373 4.43405
lowerneck -11.9184 -0.997467 -0.0711167
upperneck -0.0770945 -1.41444 2.50862
head 2.04237 -0.622035 0.759566
lclavicle -2.66009e-14 5.8057e-15 -1.21812e-29
lhumerus -41.3047 -20.6819 92.0882
lradius 49.1534 -0 0
lwrist 14.8784 0 0
lhand 5.48963 6.05774 0.147337
lfingers 7.12502 -0 0
lthumb 30.8045 33.1807 0.0478071
rclavicle -2.66009e-14 5.8057e-15 -1.21812e-29
rhumerus -43.881 -22.8682 -64.1971
rradius 74.0815 -0 0
rwrist -29.4998 0 0
rhand -27.7243 -25.6218 0.0112204
rfingers 7.12502 -0 0
rthumb -1.11971 -55.5965 0.0115244
104
root 7.44978 16.5703 -26.6453 -6.57161 7.5865 4.0933
lfemur -8.89271 11.473 -21.3839
ltibia 36.0282 -0 0
lfoot -22.1021 -9.74314 -0.531999
ltoes 32.9394 -0 0
rfemur -83.2155 -25.3826 47.5783
rtibia 82.3412 -0 0
rfoot 9.13075 19.8394 2.77886
rtoes -25.7727 0 0
lowerback 13.1025 -2.29249 -8.00501
upperback 3.90673 -4.11902 -0.924661
thorax -2.56634 -2.00121 4.4191
lowerneck -11.9398 -0.985082 -0.0929427
upperneck -0.0627839 -1.39687 2.54885
head 2.05159 -0.611961 0.776684
lclavicle -2.55578e-14 6.2689e-15 -1.1857e-29
lhumerus -41.2892 -20.7873 92.0141
lradius 49.2993 -0 0
lwrist 15.0035 0 0
lhand 5.66739 6.09684 0.143109
lfingers 7.12502 -0 0
lthumb 30.9747 33.1953 0.0463105
rclavicle -2.55578e-14 6.2689e-15 -1.1857e-29
rhumerus -43.9188 -23.0551 -63.972
rradius 74.4162 -0 0
rwrist -29.8987 0 0
rhand -27.7703 -25.6608 0.0107245
rfingers 7.12502 -0 0
rthumb -1.16415 -55.6354 0.0110354
105
root 7.4619 16.5674 -26.631 -6.72479 7.7045 4.14417
lfemur -8.7828 11.5657 -21.3818
ltibia 36.0378 -0 0
lfoot -21.9378 -9.8861 -0.516735
ltoes 32.8816 -0 0
rfemur -83.9569 -25.4464 48.0073
rtibia 82.8222 -0 0
rfoot 9.53857 20.1327 2.69864
rtoes -26.2253 0 0
lowerback 13.2661 -2.34788 -8.04407
upperback 3.97509 -4.20889 -0.969445
thorax -2.57481 -2.04821 4.40431
lowerneck -11.9611 -0.972845 -0.114559
upperneck -0.0486101 -1.37951 2.58869
head 2.06071 -0.602 0.793635
lclavicle -2.45218e-14 6.72468e-15 -1.15263e-29
lhumerus -41.2737 -20.8917 91.9406
lradius 49.4436 -0 0
lwrist 15.1272 0 0
lhand 5.84342 6.13555 0.138808
lfingers 7.12502 -0 0
lthumb 31.1432 33.2098 0.0447887
rclavicle -2.45218e-14 6.72468e-15 -1.15263e-29
rhumerus -43.9571 -23.2399 -63.7489
rradius 74.7476 -0 0
rwrist -30.2933 0 0
rhand -27.8163 -25.6997 0.0102289
rfingers 7.12502 -0 0
rthumb -1.20858 -55.6742 0.0105461
106
root 7.47388 16.5646 -26.6167 -6.87624 7.82145 4.19418
lfemur -8.6741 11.6574 -21.3795
ltibia 36.0474 -0 0
lfoot -21.7753 -10.0276 -0.501234
ltoes 32.8244 -0 0
rfemur -84.6912 -25.5046 48.4327
rtibia 83.2982 -0 0
rfoot 9.94232 20.4218 2.61722
rtoes -26.6715 0 0
lowerback 13.428 -2.4026 -8.08286
upperback 4.04278 -4.29779 -1.01386
thorax -2.58319 -2.09473 4.38967
lowerneck -11.9821 -0.960759 -0.135959
upperneck -0.034578 -1.36236 2.62813
head 2.06974 -0.592156 0.810415
lclavicle -2.34932e-14 7.17287e-15 -1.11896e-29
lhumerus -41.2581 -20.995 91.8679
lradius 49.5863 -0 0
lwrist 15.2496 0 0
lhand 6.01764 6.17385 0.13444
lfingers 7.12502 -0 0
lthumb 31.3101 33.2241 0.0432441
rclavicle -2.34932e-14 7.17287e-15 -1.11896e-29
rhumerus -43.996 -23.4227 -63.5277
rradius 75.0755 -0 0
rwrist -30.6835 0 0
rhand -27.8623 -25.7386 0.00973432
rfingers 7.12502 -0 0
rthumb -1.25299 -55.7129 0.0100573
107
root 7.48572 16.5618 -26.6027 -7.0259 7.93733 4.24331
lfemur -8.56665 11.7482 -21.377
ltibia 36.0569 -0 0
lfoot -21.6147 -10.1675 -0.485514
ltoes 32.7678 -0 0
rfemur -85.4182 -25.5573 48.8542
rtibia 83.7693 -0 0
rfoot 10.3419 20.7068 2.53468
rtoes -27.1113 0 0
lowerback 13.588 -2.45663 -8.12136
upperback 4.10978 -4.38567 -1.0579
thorax -2.59146 -2.14075 4.3752
lowerneck -12.0028 -0.948828 -0.157137
upperneck -0.0206926 -1.34543 2.66716
head 2.07867 -0.582432 0.827018
lclavicle -2.24722e-14 7.61324e-15 -1.08473e-29
lhumerus -41.2426 -21.0972 91.7959
lradius 49.7274 -0 0
lwrist 15.3705 0 0
lhand 6.19001 6.21174 0.130012
lfingers 7.12502 -0 0
lthumb 31.4751 33.2382 0.0416794
rclavicle -2.24722e-14 7.61324e-15 -1.08473e-29
rhumerus -44.0352 -23.6033 -63.3086
rradius 75.3999 -0 0
rwrist -31.0692 0 0
rhand -27.9083 -25.7773 0.00924163
rfingers 7.12502 -0 0
rthumb -1.29737 -55.7516 0.00956966
108
root 7.49743 16.559 -26.5888 -7.17373 8.05209 4.29157
lfemur -8.46047 11.838 -21.3744
ltibia 36.0663 -0 0
lfoot -21.4559 -10.3058 -0.469593
ltoes 32.7119 -0 0
rfemur -86.1375 -25.6047 49.2715
rtibia 84.2353 -0 0
rfoot 10.7372 20.9875 2.45113
rtoes -27.5443 0 0
lowerback 13.7463 -2.50996 -8.15954
upperback 4.17606 -4.47252 -1.10153
thorax -2.59963 -2.18625 4.36089
lowerneck -12.0233 -0.937055 -0.178084
upperneck -0.00695873 -1.32872 2.70576
head 2.0875 -0.57283 0.843439
lclavicle -2.14593e-14 8.04561e-15 -1.04999e-29
lhumerus -41.227 -21.1983 91.7247
lradius 49.8668 -0 0
lwrist 15.4901 0 0
lhand 6.36047 6.24918 0.12553
lfingers 7.12502 -0 0
lthumb 31.6383 33.2522 0.0400974
rclavicle -2.14593e-14 8.04561e-15 -1.04999e-29
rhumerus -44.0749 -23.7817 -63.0918
rradius 75.7206 -0 0
rwrist -31.4503 0 0
rhand -27.9542 -25.816 0.00875163
rfingers 7.12502 -0 0
rthumb -1.34171 -55.7901 0.00908403
109
root 7.50898 16.5563 -26.5751 -7.31969 8.16568 4.33894
lfemur -8.35562 11.9267 -21.3716
ltibia 36.0757 -0 0
lfoot -21.2991 -10.4426 -0.45349
ltoes 32.6567 -0 0
rfemur -86.8487 -25.6468 49.6845
rtibia 84.6959 -0 0
rfoot 11.1281 21.2638 2.36667
rtoes -27.9704 0 0
lowerback 13.9027 -2.56257 -8.19739
upperback 4.24161 -4.55831 -1.14475
thorax -2.60769 -2.23122 4.34675
lowerneck -12.0436 -0.925445 -0.198795
upperneck 0.00661862 -1.31224 2.74393
head 2.09622 -0.563354 0.859673
lclavicle -2.04548e-14 8.46977e-15 -1.01477e-29
lhumerus -41.2113 -21.2982 91.6542
lradius 50.0044 -0 0
lwrist 15.6081 0 0
lhand 6.52897 6.28617 0.120999
lfingers 7.12502 -0 0
lthumb 31.7997 33.266 0.0385008
rclavicle -2.04548e-14 8.46977e-15 -1.01477e-29
rhumerus -44.115 -23.9578 -62.8771
rradius 76.0375 -0 0
rwrist -31.8267 0 0
rhand -28.0001 -25.8546 0.00826515
rfingers 7.12502 -0 0
rthumb -1.38602 -55.8285 0.00860122
